# xmcd
#
# Track frame offsets:
#	151
#	10691
#	21956
#	33792
#	45904
#	57880
#	69874
#	82068
#	92308
#	101705
#	114540
#	126168
#	136104
#	148826
#	161392
#	173044
#
# Disc length: 2464 seconds
#
# Revision: 1
# Processed by: cddbd v1.4PL0 Copyright (c) Steve Scherf et al.
# Submitted via: audiograbber 1.82.02
#
DISCID=c0099e10
DTITLE=Hank Snow - Legendary [CD2]
DYEAR=2003
DGENRE=Country
TTITLE0=Lady's Man
TTITLE1=(Now And Then There's) A Fool Such As I
TTITLE2=The Gal Who Invented Kissin'
TTITLE3=I Went To Your Wedding
TTITLE4=The Boogie Woogie Flying Cloud
TTITLE5=Born To Be Happy
TTITLE6=Honeymoon On A Rocket Ship
TTITLE7=Spanish Fireball
TTITLE8=For Now And Always
TTITLE9=Roll Along Kentucky Moon
TTITLE10=The Next Voice You Hear
TTITLE11=Would You Mind
TTITLE12=Stolen Moments
TTITLE13=It's You Only You That I Love (with Betty Cody)
TTITLE14=Any Old Time
TTITLE15=I've Forgotten You
EXTD=
EXTT0=
EXTT1=
EXTT2=
EXTT3=
EXTT4=
EXTT5=
EXTT6=
EXTT7=
EXTT8=
EXTT9=
EXTT10=
EXTT11=
EXTT12=
EXTT13=
EXTT14=
EXTT15=
PLAYORDER=
